<svg width="216" height="60" viewBox="0 0 216 60" fill="none" xmlns="http://www.w3.org/2000/svg">
<rect x="38" y="8.5" width="43" height="43" rx="21.5" fill="#1E1E1E"/>
<path d="M52.5528 20.2824V24.228H60.7896V28.4904H54.6264V32.3208H60.7896V40.5H65.7144V20.2824H52.5528Z" fill="white"/>
<path d="M115.947 20.2824V24.228H107.71V28.4904H113.874V32.3208H107.71V40.5H102.786V20.2824H115.947ZM121.012 22.7592C120.148 22.7592 119.438 22.5096 118.881 22.0104C118.344 21.492 118.075 20.8584 118.075 20.1096C118.075 19.3416 118.344 18.708 118.881 18.2088C119.438 17.6904 120.148 17.4312 121.012 17.4312C121.857 17.4312 122.548 17.6904 123.086 18.2088C123.643 18.708 123.921 19.3416 123.921 20.1096C123.921 20.8584 123.643 21.492 123.086 22.0104C122.548 22.5096 121.857 22.7592 121.012 22.7592ZM123.46 24.4296V40.5H118.536V24.4296H123.46ZM136.533 40.5L133.452 36.036L130.86 40.5H125.532L130.831 32.292L125.388 24.4296H130.917L133.999 28.8648L136.591 24.4296H141.919L136.533 32.5224L142.063 40.5H136.533ZM146.437 22.7592C145.573 22.7592 144.863 22.5096 144.306 22.0104C143.769 21.492 143.5 20.8584 143.5 20.1096C143.5 19.3416 143.769 18.708 144.306 18.2088C144.863 17.6904 145.573 17.4312 146.437 17.4312C147.282 17.4312 147.973 17.6904 148.511 18.2088C149.068 18.708 149.346 19.3416 149.346 20.1096C149.346 20.8584 149.068 21.492 148.511 22.0104C147.973 22.5096 147.282 22.7592 146.437 22.7592ZM148.885 24.4296V40.5H143.961V24.4296H148.885ZM159.77 40.7304C158.195 40.7304 156.774 40.3944 155.507 39.7224C154.259 39.0504 153.27 38.0904 152.541 36.8424C151.83 35.5944 151.475 34.1352 151.475 32.4648C151.475 30.8136 151.84 29.364 152.57 28.116C153.299 26.8488 154.298 25.8792 155.565 25.2072C156.832 24.5352 158.253 24.1992 159.827 24.1992C161.402 24.1992 162.822 24.5352 164.09 25.2072C165.357 25.8792 166.355 26.8488 167.085 28.116C167.814 29.364 168.179 30.8136 168.179 32.4648C168.179 34.116 167.805 35.5752 167.056 36.8424C166.326 38.0904 165.318 39.0504 164.032 39.7224C162.765 40.3944 161.344 40.7304 159.77 40.7304ZM159.77 36.468C160.71 36.468 161.507 36.1224 162.16 35.4312C162.832 34.74 163.168 33.7512 163.168 32.4648C163.168 31.1784 162.842 30.1896 162.189 29.4984C161.555 28.8072 160.768 28.4616 159.827 28.4616C158.867 28.4616 158.07 28.8072 157.437 29.4984C156.803 30.1704 156.486 31.1592 156.486 32.4648C156.486 33.7512 156.794 34.74 157.408 35.4312C158.042 36.1224 158.829 36.468 159.77 36.468Z" fill="#1E1E1E"/>
</svg>
